<?xml version="1.0" encoding="utf-8"?>
<!-- Generator: Adobe Illustrator 23.1.0, SVG Export Plug-In . SVG Version: 6.00 Build 0)  -->
<svg version="1.1" id="Layer_1" xmlns="http://www.w3.org/2000/svg" xmlns:xlink="http://www.w3.org/1999/xlink" x="0px" y="0px"
	 viewBox="0 0 136 136" style="enable-background:new 0 0 136 136;" xml:space="preserve">
<style type="text/css">
	.st0{fill:#C8AA6E;}
	.st1{opacity:0.75;fill:#59431D;enable-background:new    ;}
	.st2{fill:#624C27;}
</style>
<path class="st0" d="M120,120c-32.1,0-64.1,0-96.2,0c6.7-6.7,13.4-13.3,20.2-20h56V44c6.7-6.7,13.3-13.5,20-20.2
	C120,55.9,120,87.9,120,120z"/>
<g>
	<path class="st1" d="M32,92c-5.3,5.3-10.7,10.6-16,15.9c0-30.6,0-61.3,0-91.9c30.6,0,61.3,0,91.9,0c-5.3,5.3-10.7,10.7-16,16
		c-20,0-40,0-59.9,0V92z"/>
	<path class="st1" d="M80,80H52V52h28V80z"/>
</g>
<path class="st2" d="M99.8,24l-7.9,7.9H32V92l-6.8,6.8c-3.7,3.7-7.3,7.3-7.9,7.8l-1.1,1.1V16h91.6L99.8,24z"/>
<path class="st2" d="M79.9,66v14H52.1V52.1h27.8V66z"/>
</svg>
